<?xml version="1.0" standalone="no"?>
<!DOCTYPE svg PUBLIC "-//W3C//DTD SVG 20010904//EN"
 "http://www.w3.org/TR/2001/REC-SVG-20010904/DTD/svg10.dtd">
<svg version="1.0" xmlns="http://www.w3.org/2000/svg"
 width="181.000000pt" height="86.000000pt" viewBox="0 0 181.000000 86.000000"
 preserveAspectRatio="xMidYMid meet">

<g transform="translate(0.000000,86.000000) scale(0.100000,-0.100000)"
fill="#000000" stroke="none">
<path d="M1580 807 c-35 -17 -48 -61 -30 -94 36 -63 122 -44 128 29 5 54 -49
90 -98 65z"/>
<path d="M50 530 l0 -280 204 0 203 0 19 53 19 52 111 3 110 3 18 -56 17 -55
70 0 c39 0 69 4 67 9 -1 5 -52 131 -113 280 l-109 271 -61 0 -61 0 -90 -222
-89 -223 -92 -3 -93 -3 0 61 0 60 90 0 90 0 0 55 0 55 -90 0 -90 0 0 55 0 55
95 0 95 0 0 55 0 55 -160 0 -160 0 0 -280z m588 27 c12 -33 22 -63 22 -68 0
-5 -25 -9 -55 -9 -30 0 -55 4 -55 10 0 22 53 141 60 133 4 -4 16 -34 28 -66z"/>
<path d="M1225 596 c-88 -39 -129 -158 -86 -251 45 -98 153 -135 235 -80 34
23 36 23 36 5 0 -18 7 -20 60 -20 l60 0 0 175 0 175 -60 0 c-45 0 -60 -4 -60
-14 0 -11 -8 -10 -37 5 -43 22 -105 24 -148 5z m144 -101 c31 -16 41 -33 41
-74 0 -61 -62 -96 -118 -67 -60 31 -58 111 3 144 27 15 41 15 74 -3z"/>
<path d="M1550 425 l0 -175 60 0 60 0 0 175 0 175 -60 0 -60 0 0 -175z"/>
<path d="M1020 387 c-14 -7 -31 -25 -38 -40 -36 -76 64 -142 123 -82 31 30 32
66 3 99 -29 31 -57 39 -88 23z"/>
<path d="M452 158 c-19 -19 -14 -36 15 -50 34 -16 31 -34 -4 -31 -18 2 -23 -1
-16 -8 18 -18 58 -6 61 17 2 16 -4 24 -28 33 -36 12 -31 35 6 28 27 -5 33 8 8
17 -22 8 -28 8 -42 -6z"/>
<path d="M630 160 c0 -5 7 -10 14 -10 11 0 16 -14 19 -47 l3 -48 2 48 c2 34 6
47 17 47 8 0 15 5 15 10 0 6 -16 10 -35 10 -19 0 -35 -4 -35 -10z"/>
<path d="M1202 154 c-24 -17 -30 -62 -10 -82 28 -28 88 0 88 41 0 17 -34 57
-48 57 -4 0 -18 -7 -30 -16z m56 -35 c6 -48 -49 -63 -63 -18 -9 26 13 51 39
47 14 -2 22 -12 24 -29z"/>
<path d="M1412 154 c-26 -18 -29 -56 -6 -78 17 -18 64 -22 64 -5 0 5 -5 7 -10
4 -16 -10 -47 4 -53 24 -7 28 11 51 41 51 21 0 24 2 12 10 -20 13 -22 13 -48
-6z"/>
<path d="M100 120 c-4 -40 -8 -45 -28 -43 -13 2 -21 -1 -17 -7 9 -15 45 -12
51 4 3 8 4 31 2 52 l-4 39 -4 -45z"/>
<path d="M244 121 c1 -30 7 -47 19 -55 29 -19 52 4 54 55 l1 44 -7 -38 c-5
-21 -13 -43 -19 -49 -17 -17 -40 8 -45 50 -4 32 -4 31 -3 -7z"/>
<path d="M961 108 c2 -52 2 -52 8 -13 l6 40 17 -25 c17 -24 18 -24 33 -5 14
19 14 19 15 -7 0 -15 5 -30 10 -33 6 -4 10 13 10 44 0 57 -9 64 -35 24 l-18
-26 -14 26 c-21 42 -33 32 -32 -25z"/>
<path d="M1592 110 c0 -30 2 -48 5 -40 14 37 24 40 49 12 13 -15 24 -22 24
-16 0 6 -7 17 -15 24 -19 16 -19 29 2 52 9 10 12 18 6 18 -5 0 -18 -9 -28 -20
-23 -26 -33 -25 -38 3 -2 12 -5 -3 -5 -33z"/>
</g>
</svg>
